<?xml version="1.0" encoding="utf-8"?>
<!-- Generator: Adobe Illustrator 22.0.1, SVG Export Plug-In . SVG Version: 6.00 Build 0)  -->
<svg version="1.1" id="Calque_1" xmlns="http://www.w3.org/2000/svg" xmlns:xlink="http://www.w3.org/1999/xlink" x="0px" y="0px"
	 viewBox="0 0 251.8 246.2" style="enable-background:new 0 0 251.8 246.2;" xml:space="preserve">
<style type="text/css">
	.st0{fill:#A0737D;}
	.st1{fill:#DB9B98;}
	.st2{fill:#FBDCD9;}
	.st3{fill:#E5E5E5;stroke:#E5E5E5;stroke-width:0.2529;stroke-miterlimit:10;}
	.st4{fill:#685C5C;}
	.st5{fill:#825E69;stroke:#825E69;stroke-width:0.9041;stroke-miterlimit:10;}
	.st6{fill:#FFFFFF;}
	.st7{fill:#825E69;stroke:#825E69;stroke-width:0.5477;stroke-miterlimit:10;}
</style>
<g>
	<g>
		<path class="st0" d="M162.3,88.5c5.4,8.7,10.4,17.6,15.1,26.7c3.5,6.8,6.8,13.8,9.3,21.1c1.1,3.4,4.4,11.3,1.7,14.7
			c-2.1,2.7,1.6,6.5,3.8,3.8c3.4-4.2,2.4-10.2,1.1-15.1c-2-7.8-5.4-15.4-9-22.6c-5.2-10.7-11-21.2-17.3-31.3
			C165.1,82.9,160.4,85.6,162.3,88.5L162.3,88.5z"/>
	</g>
</g>
<g>
	<path class="st1" d="M155.6,121.7c-1,6.6-2,13.2-3,19.9c-2.3,14.9-4.6,30-2.3,44.9"/>
	<g>
		<path class="st0" d="M153.4,121.1c-3.3,21.7-8.4,44-5.4,66c0.4,2.9,4.7,1.6,4.4-1.2c-2.9-21.1,2.2-42.8,5.4-63.6
			C158.2,119.5,153.8,118.3,153.4,121.1L153.4,121.1z"/>
	</g>
</g>
<g>
	<g>
		<path class="st0" d="M117.5,136.1c-1,5.1-3.9,9.4-6,14.2c-2.2,5.2-2.6,10.9-3.4,16.4c-1.6,11.8-2.4,23.6-0.8,35.4
			c0.4,2.9,4.7,1.6,4.4-1.2c-1.7-12.3-0.5-24.7,1.3-36.9c0.8-5.3,1.6-9.9,4-14.8c1.9-3.9,4-7.6,4.8-11.9
			C122.4,134.5,118.1,133.3,117.5,136.1L117.5,136.1z"/>
	</g>
</g>
<g>
	<g>
		<g>
			<g>
				<path class="st1" d="M196.8,112.1c14.3,30.5-25.9,20.7-25.9,20.7l-43.8-86.3c14-9.6,25.9,3,25.9,3c19.1-19.5,32.8,8.5,32.8,8.5
					c28.9,0.3,20.6,27.4,20.6,27.4c20.5,20.2-8.4,36.6-6.9,34.1"/>
				<g>
					<path class="st0" d="M194.8,113.3c2.2,4.9,5.1,12.6-0.3,16.4c-3.6,2.5-8.8,2.5-13,2.4c-2-0.1-3.9-0.3-5.8-0.6
						c-0.7-0.1-3-1-3.7-0.7c-0.9,0.3,0.6,1.4,0.6,0.5c0-0.7-1.1-2.2-1.4-2.8c-10.5-20.7-21-41.3-31.5-62c-3.6-7-7.1-14-10.7-21.1
						c-0.3,1-0.5,2.1-0.8,3.1c7.6-4.8,16.8-4,23.1,2.6c0.9,0.9,2.3,0.8,3.2,0c6.8-6.6,14.7-8.4,22-1.6c3,2.7,5.5,6.1,7.2,9.7
						c0.4,0.7,1.2,1.1,2,1.1c9,0.2,17.5,3.5,19.1,13.2c0.6,3.7,0.3,7.8-0.8,11.4c-0.2,0.8,0,1.6,0.6,2.2c6.2,6.4,9,14.2,3.8,22.1
						c-1.5,2.3-3.5,4.4-5.7,6.1c-0.7,0.6-1.8,1-2.5,1.7c-1.2,1.2-1.5-0.3,0.2,0.8c0.4,0.7,0.7,1.3,1.1,2c-0.1,0.3-0.2,0.6-0.3,0.9
						c1.2-2.6-2.7-4.9-3.9-2.3c-1.4,3.1,1.7,4.1,4,3.1c3.3-1.4,6.4-4.4,8.7-7.1c8.4-10,6.4-21.5-2.4-30.5c0.2,0.7,0.4,1.5,0.6,2.2
						c1.5-5,1.7-10.8,0.3-15.8c-3-10.5-13-14.2-23-14.5c0.7,0.4,1.3,0.7,2,1.1c-2.5-5.1-6.4-10-11.1-13.2c-8.8-6-18.1-2.8-25.2,4.2
						c1.1,0,2.1,0,3.2,0c-7.7-8-19.3-9.2-28.6-3.3c-1.1,0.7-1.4,2-0.8,3.1c10,19.7,20,39.5,30.1,59.2c4.4,8.6,8.2,17.9,13.3,26.2
						c2.7,4.4,12.6,3.7,17.1,3.5c5.1-0.3,10.9-1.4,14.2-5.7c4.5-5.9,1.7-13.9-1-19.9C197.5,108.4,193.6,110.7,194.8,113.3
						L194.8,113.3z"/>
				</g>
			</g>
			<g>
				<g>
					<path class="st1" d="M133.6,75C167.3,54.9,164,95.1,164,95.1c26.2,13.1,6.3,37.8,6.3,37.8s-4.7,29.1-28.4,14.7l8.1-5.1
						c0,0-35.5,27.6-47.2-5.4l4.1,8.1c-24.7,13-34.4-5.8-34.4-5.8c-20.3,3.1-20.4-13.7-19.1-15.2c-10.7-13.8-0.5-22.1,0.1-22.6
						c0,0,0,0,0-0.1c-8.3-15.5,8.4-24.3,8.4-24.3c-5.4-25.3,23-24.3,22.4-22.9c8.9-18.3,30.1-3.3,30.1-3.3
						C133,39,147.7,69.5,147.7,69.5"/>
					<g>
						<path class="st0" d="M134.8,76.9c8.8-5.1,20.8-9.2,25.2,2.9c1.7,4.8,2.2,10.2,1.8,15.2c-0.1,0.7,0.5,1.6,1.1,2
							c9.3,4.9,14.5,12.8,11.4,23.3c-1.3,4.4-4.8,8.5-6.2,11.9c-1.4,3.7-1.9,7.3-4.1,10.7c-5.2,8.1-13.4,7.1-21,2.6
							c0,1.3,0,2.6,0,3.9c2.7-1.7,5.4-3.4,8.1-5.1c-0.8-1.3-1.5-2.6-2.3-3.9c-4.9,3.8-10.7,6.9-16.6,8.8c-4.6,1.5-9.6,2.3-14.3,1.1
							c-6.8-1.8-10.7-7.7-13-14c-1.4,0.6-2.8,1.2-4.1,1.7c1.4,2.7,2.8,5.4,4.1,8.1c0.3-1,0.5-2.1,0.8-3.1c-10.2,5.1-25,6.9-31.3-5
							c-0.3-0.6-1.2-1.2-2-1.1c-5.6,0.7-12.4,0.6-15.7-4.8c-0.9-1.5-2.4-5.6-1.4-7.1c0.4-0.6,0.4-1.7,0-2.3
							c-3.8-5.1-6.5-11.5-2.6-17.3c1.9-2.7,3.6-2.8,2.2-6.4c-3.2-8.3,0.3-16,8-20.2c0.9-0.5,1.2-1.6,1-2.6
							c-1.5-7.7,0.2-15.1,7.7-18.6c2.3-1.1,4.8-1.7,7.3-1.9c0.8-0.1,2,0.1,2.8-0.1c0.1,0,0.7,0.1,0.9,0.1c0.1,0,0.2,0,0.3,0.1
							c0.9,0.3,0.6-0.3-1-1.8c-0.3,2.3,3.2,3,4.2,1.1c5.9-11.1,18.2-8.7,27-2.5c0.6,0.4,1.6,0.4,2.3,0c13.3-7.9,25.1,6.9,30.4,17.8
							c1.3,2.6,5.2,0.3,3.9-2.3C143.2,55,128.8,39.6,113.1,49c0.8,0,1.5,0,2.3,0c-10.9-7.6-26.2-9.1-33.2,4.2
							c1.4,0.4,2.8,0.8,4.2,1.1c0.7-5.6-13.5-1.7-15.5-0.9c-10.4,4.2-13.3,14-11.3,24.4c0.3-0.9,0.7-1.7,1-2.6
							C52.9,79.4,47.3,88,49.4,97c0.2,1,0.7,3.7,1.5,4.3c-0.2-0.2,1.6-2,0-0.5c-1.4,1.4-2.5,3.1-3.3,4.9c-3,6.8-0.3,13.8,3.8,19.5
							c0-0.8,0-1.5,0-2.3c-2.1,3.1-0.3,8.8,1.4,11.6c4.1,6.9,12.3,8,19.6,7c-0.7-0.4-1.3-0.7-2-1.1c7.5,14.2,25.2,12.9,37.5,6.6
							c1.1-0.6,1.3-2.1,0.8-3.1c-1.4-2.7-2.8-5.4-4.1-8.1c-1.1-2.2-5-0.7-4.1,1.7c4.8,12.8,14.8,20,28.6,17.2
							c7.8-1.6,15.6-5.5,21.9-10.4c2.2-1.7,0.3-5.5-2.3-3.9c-2.7,1.7-5.4,3.4-8.1,5.1c-1.4,0.9-1.5,3,0,3.9c8,4.7,17.7,6.6,24.7-0.9
							c4-4.3,5.5-9.6,7-15.1c-0.5,1.7-0.3,0.6,0.4-0.4c0.8-1.1,1.5-2.2,2.2-3.4c2-3.5,3.6-7.2,4.3-11.2c2.2-11.5-4.2-20.3-14.2-25.5
							c0.4,0.7,0.7,1.3,1.1,2c0.5-6.6-0.3-14-3.4-19.9c-6.6-12.3-20.6-7.9-30.4-2.2C130,74.5,132.3,78.4,134.8,76.9L134.8,76.9z"/>
					</g>
				</g>
			</g>
		</g>
		<g>
			<path class="st1" d="M122.1,65c0,0-7.6-6.6-11.6,5.5"/>
			<path class="st0" d="M122,65.2c-2,0.5-3.2,0.9-4,1.3c-0.8,0.5-0.7,0.8-1.1,1c-0.3,0.1-1,0.6-2,1.1c-0.5,0.3-1.1,0.6-1.7,1
				c-0.3,0.2-0.7,0.4-1.1,0.5c-0.4,0.2-0.8,0.4-1.3,0.5l-0.4-0.1l0.6-1.9c0.2-0.6,0.6-1.2,0.9-1.8c0.7-1.1,1.5-2.3,2.8-3.1
				c1.2-0.7,2.7-1,4.1-0.7c1.4,0.3,2.6,1,3.6,1.9L122,65.2z"/>
		</g>
		<g>
			<path class="st1" d="M94.6,62.3c0,0-18.1,5.3-13,17.8c0,0-15.4,9-6.5,17.9"/>
			<path class="st0" d="M94.7,62.5c-1.7,1.5-3.3,2.8-4.7,4.2c-0.7,0.7-1.4,1.4-2,2.1c-0.6,0.7-1.2,1.4-1.6,2.1
				c-0.9,1.4-1.4,2.7-1.5,3.9c-0.1,1.2,0.1,2.4,0.6,3.9l1.2,3.4l-2.9,1.6c-0.2,0.1-0.6,0.4-0.9,0.6c-0.3,0.2-0.7,0.4-1,0.7
				c-0.7,0.5-1.3,0.9-2,1.4c-1.3,1-2.4,2-3.4,3.1c-0.9,1.1-1.7,2.1-1.9,3.5c-0.3,1.4,0.1,3.1,0.9,5L75,98.1c-1.4-1.3-2.5-3-2.9-4.9
				c-0.3-2,0.2-3.9,1.2-5.6c0.9-1.7,2.2-3.1,3.6-4.4c1.4-1.3,2.9-2.4,4.5-3.5l-0.2,0.5c-0.8-2-1.2-4.2-0.7-6.4
				c0.4-2.2,1.6-4.1,3.1-5.6c1.5-1.5,3.2-2.8,5.1-3.8c1.9-1,3.8-1.8,5.9-2.4L94.7,62.5z"/>
		</g>
		<g>
			<path class="st1" d="M186.2,72.8c0,0-4.2-14.4-15.9-9.6"/>
			<path class="st0" d="M186,72.8c-2-1.1-3.5-2.2-4.8-3.1l-3.2-2.4c-0.9-0.6-1.6-1.2-2.7-1.9c-1.1-0.7-2.7-1.2-4.9-2.1l-0.2-0.4
				c1.6-0.7,3.4-1.2,5.3-1.1c1.8,0.1,3.7,0.7,5.2,1.8c1.5,1.1,2.7,2.5,3.6,4.1c1,1.5,1.7,3.2,2.2,4.9L186,72.8z"/>
		</g>
		<g>
			<path class="st1" d="M176.1,54.7c-1.2-1.1-2.4-2.2-3.9-2.8c-1.5-0.6-3.4-0.5-4.5,0.7"/>
			<g>
				<path class="st2" d="M177.7,53.1c-3.2-3-7.7-5.5-11.6-2.1c-2.2,1.9,1,5.1,3.2,3.2c1.6-1.4,4.1,1.1,5.2,2.1
					C176.7,58.2,179.9,55.1,177.7,53.1L177.7,53.1z"/>
			</g>
		</g>
		<g>
			<path class="st1" d="M198.4,73.9c0.1-2.1-0.8-4.3-2.3-5.7"/>
			<g>
				<path class="st2" d="M200.7,73.9c0.1-2.7-1-5.4-3-7.3c-2.1-2-5.3,1.2-3.2,3.2c1.2,1.1,1.7,2.5,1.7,4.1
					C196.1,76.8,200.6,76.8,200.7,73.9L200.7,73.9z"/>
			</g>
		</g>
		<g>
			<path class="st1" d="M116.7,85.4c-1.5-0.5-2.7-1.4-3.6-2.7"/>
			<g>
				<path class="st2" d="M117.3,83.2c-0.1,0-0.3-0.1-0.4-0.1c0.3,0.1-0.1-0.1-0.2-0.1c-0.3-0.2-0.6-0.3-0.8-0.5c0.2,0.1,0,0-0.1-0.1
					c-0.1-0.1-0.2-0.2-0.3-0.3c-0.1-0.1-0.3-0.3-0.4-0.4c-0.3-0.3,0.3,0.4-0.1-0.2c-0.7-1-2-1.5-3.1-0.8c-1,0.6-1.5,2.1-0.8,3.1
					c1.3,1.8,2.9,3.1,5,3.8c1.1,0.4,2.5-0.4,2.8-1.6C119.2,84.7,118.5,83.6,117.3,83.2L117.3,83.2z"/>
			</g>
		</g>
		<g>
			<path class="st1" d="M125,57.2c2.8-0.2,5.8,1.3,7.3,3.7"/>
			<g>
				<path class="st2" d="M125,59.5c2.2-0.1,4.1,0.8,5.3,2.6c1.6,2.4,5.5,0.2,3.9-2.3c-2-3.1-5.5-5-9.2-4.8
					C122.1,55.1,122.1,59.6,125,59.5L125,59.5z"/>
			</g>
		</g>
		<g>
			<path class="st1" d="M206.5,99.7c0.6,1.3,0.3,2.9-0.7,3.9c0.4-1.3,0.6-2.7,0.5-4.1c0,1.7-0.2,3.7-1.6,4.6
				c0.6-1.5,1.1-3.1,1.3-4.7"/>
			<g>
				<path class="st2" d="M204.6,100.8c0,0,0,0.3,0,0.4c-0.1,0.4-0.1,0.5-0.3,0.7c1.3,0.7,2.5,1.5,3.8,2.2c0.4-1.5,0.6-3.1,0.6-4.7
					c-0.1-2.9-4.5-2.9-4.5,0c0,0.7,0,1.2-0.1,1.8c-0.1,0.4-0.1,0.4-0.2,0.6c-0.2,0.2-0.2,0.3-0.1,0.1c-0.2,0.2-0.2,0.2-0.1,0.1
					c1.1,0.9,2.2,1.7,3.3,2.6c0.6-1.5,1-3.1,1.3-4.7c0.2-1.2-0.3-2.4-1.6-2.8c-1.1-0.3-2.6,0.4-2.8,1.6c-0.3,1.6-0.7,3.2-1.3,4.7
					c-0.7,1.8,1.8,3.6,3.3,2.6c2.2-1.5,2.7-4,2.8-6.6c-1.5,0-3,0-4.5,0c0,1.2-0.1,2.3-0.4,3.5c-0.6,2.1,2.2,3.9,3.8,2.2
					c1.8-1.9,2-4.3,1-6.6c-0.5-1.1-2.1-1.4-3.1-0.8C204.2,98.4,204.1,99.7,204.6,100.8L204.6,100.8z"/>
			</g>
		</g>
	</g>
	<g>
		<path class="st1" d="M147.7,76.1c3.2-0.3,6.5,1.7,7.9,4.7"/>
		<g>
			<path class="st2" d="M147.7,77.8c2.8-0.1,5.2,1.4,6.4,3.8c1,2,3.9,0.2,2.9-1.7c-1.7-3.5-5.4-5.7-9.3-5.5
				C145.5,74.5,145.5,77.9,147.7,77.8L147.7,77.8z"/>
		</g>
	</g>
</g>
<path class="st3" d="M142.2,104.7c1.7-1.2,2-2.6,1.8-4.9l-0.6-9.6c-0.2-3.4-3.1-6.1-6.5-5.8l0,0c-3.4,0.2-5.9,3.2-5.7,6.6l0.6,9.6
	c0.1,2.4,1.1,3.5,3.1,4.5"/>
<path class="st4" d="M142.7,104.5c0.2-0.5,0.2-1.1,0.1-1.9l-0.4-6.7c-0.1-2.4-2.2-4.2-4.6-4h0c-2.4,0.2-4.2,2.2-4.1,4.6l0.4,6.7
	c0.1,0.9,0.3,1.6,0.7,2.1"/>
<path class="st3" d="M185.3,95.9c1.5-1,1.7-2.2,1.6-4.2l-0.5-8.4c-0.2-3-2.7-5.3-5.7-5.1h0c-2.9,0.2-5.2,2.8-5,5.8l0.5,8.4
	c0.1,2.1,1,3.1,2.7,3.9"/>
<path class="st4" d="M185.5,96c0.2-0.5,0.2-1.1,0.2-1.9l-0.4-5.8c-0.1-2.1-1.8-3.7-3.8-3.5l0,0c-2,0.1-3.5,1.9-3.4,4l0.4,5.8
	c0.1,0.9,0.3,1.5,0.7,1.9"/>
<ellipse class="st5" cx="114.9" cy="201.5" rx="7.3" ry="3.9"/>
<ellipse class="st5" cx="155.6" cy="186.5" rx="7.3" ry="3.9"/>
<g>
	<path class="st0" d="M147.6,103.3c-2.1,1-3.7,1.4-5.1,1.8c-1.4,0.4-2.5,0.6-3.6,0.8c-1.1,0.2-2.1,0.2-3.4,0.3l-5.2,0.5l-0.4-0.3
		c0.5-0.6,1-1.3,1.6-1.9c0.6-0.6,1.3-1.1,2-1.5c1.4-0.9,3-1.5,4.6-1.8c1.7-0.2,3.3-0.2,5,0.1c0.8,0.2,1.6,0.3,2.4,0.6
		c0.8,0.3,1.5,0.6,2.3,0.9L147.6,103.3z"/>
</g>
<g>
	<path class="st1" d="M135,89.5c0.3-0.8,0.8-1.6,1.5-2.1"/>
	<g>
		<path class="st6" d="M136.2,89.9c0.2-0.5,0.5-1,0.9-1.3c0.5-0.4,0.8-1.1,0.5-1.7c-0.3-0.5-1.2-0.9-1.7-0.5c-1,0.7-1.7,1.7-2.1,2.8
			c-0.2,0.6,0.2,1.4,0.9,1.6C135.3,90.9,136,90.5,136.2,89.9L136.2,89.9z"/>
	</g>
</g>
<g>
	<path class="st1" d="M183,79.9c0.5,0.2,0.9,0.5,1.2,0.9"/>
	<g>
		<path class="st6" d="M182.8,80.6c0.3,0.1,0.6,0.3,0.8,0.6c0.2,0.3,0.6,0.5,1,0.3c0.3-0.2,0.5-0.7,0.3-1c-0.4-0.6-1-1-1.7-1.3
			C182.3,78.9,181.9,80.3,182.8,80.6L182.8,80.6z"/>
	</g>
</g>
<g>
	<path class="st0" d="M190.5,94.8c-1.8,0.8-3.2,1.1-4.5,1.4c-1.2,0.3-2.2,0.5-3.1,0.6c-0.9,0.1-1.8,0.1-2.9,0.2l-4.5,0.2l-0.3-0.3
		c0.5-0.5,0.9-1.1,1.4-1.6c0.5-0.5,1.1-0.9,1.7-1.3c1.2-0.7,2.6-1.2,4.1-1.4c1.4-0.1,2.9,0,4.3,0.3c1.4,0.3,2.7,0.8,4,1.4
		L190.5,94.8z"/>
</g>
<g>
	<path class="st6" d="M149,112.9c0.9,4.2,29.9,15.7,37.2-6.3L149,112.9z"/>
	<g>
		<path class="st0" d="M147.3,113.4c1.8,5.8,13,7.6,17.9,8c10.5,0.8,19.1-4.3,22.8-14.3c0.5-1.4-1-2.4-2.2-2.2
			c-12.4,2.1-24.8,4.2-37.2,6.3c-2.3,0.4-1.3,3.8,0.9,3.4c12.4-2.1,24.8-4.2,37.2-6.3c-0.7-0.7-1.5-1.5-2.2-2.2
			c-3.1,8.6-10.5,12.4-19.3,11.7c-3.2-0.3-6.5-1-9.5-2.3c-1.2-0.5-4.5-1.6-5-3.1C150,110.2,146.6,111.2,147.3,113.4z"/>
	</g>
</g>
<g>
	<g>
		<path class="st0" d="M83.2,97.2c-6.3,10.1-12.1,20.6-17.3,31.3c-3.5,7.3-7,14.8-9,22.6c-1.2,4.9-2.3,10.8,1.1,15.1
			c2.2,2.7,5.9-1.1,3.8-3.8c-2.6-3.3,0.5-11,1.6-14.3c2.5-7.4,5.8-14.5,9.4-21.5c4.6-9.1,9.6-18.1,15.1-26.7
			C89.7,97,85,94.3,83.2,97.2L83.2,97.2z"/>
	</g>
</g>
<ellipse class="st7" cx="62.8" cy="165.3" rx="4.5" ry="2.4"/>
<ellipse class="st7" cx="189.3" cy="153" rx="4.5" ry="2.4"/>
<g>
</g>
<g>
</g>
<g>
</g>
<g>
</g>
<g>
</g>
<g>
</g>
</svg>
