<svg xmlns="http://www.w3.org/2000/svg" viewBox="0 0 532 532"><title>logo site</title><g id="vectorisé"><rect width="532" height="532" fill="#92a0a5"/><rect x="203" y="383" width="136" height="17" rx="8.5" ry="8.5" fill="#fff"/><rect x="203" y="409" width="136" height="17" rx="8.5" ry="8.5" fill="#fff"/><rect x="203" y="435" width="136" height="17" rx="8.5" ry="8.5" fill="#fff" stroke="#fff" stroke-miterlimit="10"/><path d="M579,541.5h82s16,7,0,15c0,0-5,2-7,1,0,0-19,15-31,16s-36-16-36-16C581,559.5,561,549.5,579,541.5Z" transform="translate(-349 -80)" fill="#fff" stroke="#fff" stroke-miterlimit="10"/><rect x="262" y="17" width="19" height="53" rx="9.5" ry="9.5" fill="#fff"/><rect x="757" y="190" width="53" height="19" rx="9.5" ry="9.5" transform="translate(-260.59 532.45) rotate(-45)" fill="#fff"/><rect x="443" y="173" width="19" height="53" rx="9.5" ry="9.5" transform="translate(564.53 -59.4) rotate(135)" fill="#fff"/><path d="M659,247.62c12.52-3,23.76-11.66,27.69-24.25,3.8-12.17-1.6-24-11.73-31.13-9.43-6.65-22.59-10.31-33.11-4-7.58,4.53-11.65,12.53-11.9,21.2-.77,26.06-1,52.15-1.44,78.21L626.58,391.9c-.12,6.92,0,13.86-.79,20.74-1.52,13.15,3.9,25.87,15,33.31,9.89,6.62,22.78,8.71,34.46,8.83,9.85.1,19.65-2.94,26.63-10.11,10-10.31,12.91-26.12,12.55-40,0-1-.07-2.1-.17-3.15-.45-4.76-8-4.81-7.5,0,.89,9.35-.29,19.69-4,28.33-3,6.92-8.06,12.79-15.23,15.5-10.33,3.9-23.5,2-33.71-1.39-12.91-4.31-21.33-14.67-20.74-28.44.2-4.77.79-10.83.9-16.65l1.6-87,1.67-90.52c.14-7.64-1-17,4.27-23.21,8.24-9.63,22.3-5.48,30.84,1.44,10.31,8.34,10.16,21.76,1.52,31.28A32.39,32.39,0,0,1,657,240.38c-4.69,1.12-2.7,8.36,2,7.24Z" transform="translate(-349 -80)" fill="#fff"/><path d="M683,208.57a43.68,43.68,0,0,1,17.37.58c13.28,3.56,16.32,15.55,14.95,28-.29,2.58,2.58,4,4.69,3.58a8.48,8.48,0,0,1,3.91.77,23.47,23.47,0,0,1,5.52,3.6,44.79,44.79,0,0,1,10.89,14.14c5.89,11.72,5.54,25.52-5.47,34-10,7.74-23.84,9.93-36.07,11-4.72.41-4.76,7.83,0,7.42,19.76-1.72,48-7.68,52.36-31,2.72-14.6-4.94-30.36-15.63-40.05-4.68-4.25-10.87-8.32-17.48-7l4.69,3.57c1.65-15-3.18-29.4-18.37-34.57A46.4,46.4,0,0,0,681,201.42c-4.67.92-2.69,8.07,2,7.15Z" transform="translate(-349 -80)" fill="#fff"/><path d="M748,276.62c6.73,2,13.28,8.71,13.44,16.8.1,4.82-1.75,8.72-3.18,13.19a5.34,5.34,0,0,0,.15,4.12c-.07-.21-.06-.19.37.92s.81,2.1,1.18,3.17c3.93,11.24,8.32,29.5-3.2,37.88-11.73,8.54-30.73,3.53-43.26.18a3.78,3.78,0,0,0-3.65,1c-10.18,10.53-25.67,14.69-38.46,6.41-4.06-2.63-7.83,3.86-3.78,6.48,15.55,10.07,35.09,5.3,47.54-7.59l-3.65,1c16.83,4.49,43.88,10.15,55.53-7.53,6.91-10.49,4.74-24.86,1.33-36.18a77.23,77.23,0,0,0-3.62-9.8v3.78c4.65-10.44,6.51-22.44-1.23-31.91a28.64,28.64,0,0,0-13.51-9.1c-4.63-1.39-6.61,5.84-2,7.24Z" transform="translate(-349 -80)" fill="#fff"/><path d="M706.74,435.44C721,435,733.84,424,740.8,412.37a67.73,67.73,0,0,0,4.48-9.18q1.11-2.74,2-5.58c.09-.26,1-4,.47-3.05,1.11-2.11,4.35-4.15,5.92-6,8.38-10,13.52-22.37,12.07-35.55-.52-4.75-8-4.8-7.5,0,1.3,11.81-3.19,22.81-11,31.56-1.49,1.66-3.47,3.05-4.86,4.77-1.69,2.07-1.94,5.24-2.8,7.75a60.66,60.66,0,0,1-4.33,9.88c-4.35,7.87-10.71,14.65-19,18.38a35,35,0,0,1-7.13,2.28,6.72,6.72,0,0,1-2.38.32c-4.82.15-4.84,7.65,0,7.5Z" transform="translate(-349 -80)" fill="#fff"/><path d="M629,289.55a159.16,159.16,0,0,0,21.31,22.95c12.44,11,28.7,22.34,46.17,18.62,4.71-1,2.72-8.24-2-7.24-15.82,3.38-31.4-9.56-42.12-19.66a171.09,171.09,0,0,1-16.89-18.46c-2.87-3.8-9.39-.07-6.47,3.79Z" transform="translate(-349 -80)" fill="#fff"/><path d="M665.76,323.45a40,40,0,0,0,20-3.4c12.93-5.89,17.39-19.11,16.44-32.55-.34-4.79-7.84-4.82-7.5,0,.8,11.34-2.38,22.25-13.83,26.5A34.3,34.3,0,0,1,665.76,316c-4.8-.49-4.77,7,0,7.5Z" transform="translate(-349 -80)" fill="#fff"/><path d="M680.35,281.27a26.57,26.57,0,0,0,13.75,6c10.53,1.26,18.56-5.37,24.14-13.65,2.7-4-3.79-7.77-6.48-3.78-4.24,6.29-10.36,11.52-18.37,9.74a19.67,19.67,0,0,1-5.62-2.24c-.65-.38-1.28-.79-1.9-1.21s-.19-.13-.22-.16c-3.67-3.08-9,2.2-5.3,5.31Z" transform="translate(-349 -80)" fill="#fff"/><path d="M584.39,241.26c-9-3.85-19.25-10.17-24-19-3.88-7.31-1.12-14.49,4.23-20.24,9.08-9.73,23.91-14.55,36.31-8.1,9.53,5,9.78,13.71,9.78,22.78v31.81c0,50.82.31,101.64,0,152.45-.07,11.49-3.66,23-11.34,31.73-4.61,5.23-11,6.4-17.65,7.45-5.78.92-12.07,2.62-17.94,1.83-19.4-2.63-42.4-28.22-34.7-48.45,1.71-4.52-5.53-6.47-7.24-2-7.62,20,9.55,43,26.14,52.56a41.06,41.06,0,0,0,14.35,5.19c6,.88,11.61-.44,17.5-1.31,6.12-.92,12.48-1.69,18.06-4.55s9.85-8.59,13-14c6.5-11.37,7.36-23.54,7.36-36.18V216c0-11.28-2-22.19-13-28.33-11.44-6.36-26-5.18-37,1.62-8.54,5.3-16.86,14.44-17.26,25-.57,15,14.5,25.82,26.39,31.88,1.06.53,2.13,1.06,3.22,1.53,4.39,1.87,8.21-4.59,3.78-6.48Z" transform="translate(-349 -80)" fill="#fff"/><path d="M560.39,200.26c-19.62-12.22-54.77,9.55-46.51,33.24,1.58,4.53,8.83,2.58,7.24-2-6.06-17.36,21.24-33.63,35.49-24.76,4.11,2.56,7.88-3.93,3.78-6.48Z" transform="translate(-349 -80)" fill="#fff"/><path d="M515.36,223.9c-11.76,4.35-22.8,13.64-27.05,25.63-3.81,10.76-.75,21.78,3.36,32,3.62,9,8.56,17.48,16.37,23.42,9.86,7.49,22.43,9,34.46,8.35,4.8-.27,4.83-7.77,0-7.5-11.8.66-24.13-.78-33-9.4-7.86-7.68-13-19.8-15-30.49-3-16.14,9.84-29.92,22.84-34.72,4.49-1.66,2.55-8.91-2-7.24Z" transform="translate(-349 -80)" fill="#fff"/><path d="M485.61,262.26a24.55,24.55,0,0,0-10.34,10.55c-5.49,10.64-2.22,22.53,3,32.58l.59-4.54C472,308.24,467,319,467.58,329.22c.49,9.09,5.25,17,12,22.93,5.7,4.94,13,10,20.63,11.43,12.62,2.37,24.4-3.6,33.9-11.43l-5.89-.76c11,14.64,29.71,18.6,45.13,8.35,4-2.66.25-9.16-3.78-6.48-8.06,5.36-17,6.92-25.7,2a32.52,32.52,0,0,1-6.86-5.21c-.66-.65-1.27-1.33-1.89-2-.28-.31-1.34-1.69-.42-.47a3.83,3.83,0,0,0-5.89-.76c-8.06,6.64-19,12.23-29.63,8.73-1.19-.39,0,0-.83-.32a56.94,56.94,0,0,1-9.86-5.63c-4.73-3.3-9.15-7.54-11.57-12.86-4.7-10.36.18-23.09,7.19-30.62a3.87,3.87,0,0,0,.59-4.54c-5.41-10.44-8.29-26.57,4.65-32.87,4.34-2.11.54-8.58-3.78-6.48Z" transform="translate(-349 -80)" fill="#fff"/><path d="M567.75,346.5c-1.07,9.68,2.51,20.95,11.86,25.24,4.35,2,8.17-4.47,3.78-6.48-7.11-3.26-8.94-11.54-8.14-18.76.53-4.79-7-4.75-7.5,0Z" transform="translate(-349 -80)" fill="#fff"/><path d="M477.88,351.5c-5.08,13.47-2.33,30,6.57,41.15a41.37,41.37,0,0,0,2.9,3.31c.38.39,3.12,2.33,2.54,1.56.19.25.12.78.27,1.07.89,1.83,1.28,4.06,2,6a54.44,54.44,0,0,0,11.5,17.9c7.77,7.86,17.86,12,28.79,12.79,4.81.37,4.79-7.13,0-7.5-18.84-1.46-29.26-14.82-35.15-31.29-1.21-3.39-4.4-5.23-6.69-8A33.46,33.46,0,0,1,483.35,372a37.87,37.87,0,0,1,1.77-18.52c1.7-4.52-5.55-6.48-7.24-2Z" transform="translate(-349 -80)" fill="#fff"/><path d="M589.61,229.26a18.62,18.62,0,0,0-6.37,8.34c-2.29,6.41.8,12.29,5.61,16.55,3.6,3.19,8.92-2.09,5.3-5.3-3-2.63-5.39-5.73-3.44-9.69a10.82,10.82,0,0,1,2-2.72c.32-.34,2.09-1.8.66-.7,3.78-2.9.05-9.42-3.78-6.48Z" transform="translate(-349 -80)" fill="#fff"/><path d="M652.35,253.52a18.76,18.76,0,0,0,4-9.67c.61-6.77-3.91-11.74-9.66-14.58-4.31-2.13-8.11,4.33-3.78,6.47,3.47,1.72,6.64,4,5.87,8.29a10.54,10.54,0,0,1-1.2,3.19c-.24.44-1.74,2.55-.54,1-2.91,3.78,2.36,9.12,5.3,5.31Z" transform="translate(-349 -80)" fill="#fff"/><path d="M609.88,272.5c-1.85,9.14-6.27,18.06-11.51,25.68-12.2,17.76-31.53,27-52.87,27.57-4.82.12-4.84,7.62,0,7.5,23.18-.59,44-10.39,57.85-29.18,6.32-8.58,11.63-19,13.77-29.57,1-4.72-6.28-6.73-7.24-2Z" transform="translate(-349 -80)" fill="#fff"/><path d="M566.5,320.88c-10.59-3.68-25.2-13.42-18.76-26.49,2.12-4.31-4.34-8.12-6.48-3.78-8.87,18,7.42,32,23.24,37.51,4.57,1.59,6.53-5.66,2-7.24Z" transform="translate(-349 -80)" fill="#fff"/><path d="M529.26,282.39c6.65,11.72,20,15.21,31.13,7.35,3.91-2.77.17-9.27-3.78-6.48-5.12,3.62-10.57,5-15.87,1a19,19,0,0,1-5-5.68c-2.38-4.2-8.86-.43-6.48,3.78Z" transform="translate(-349 -80)" fill="#fff"/><path d="M663.4,376.91c7.09-7.54,10.92-18.52,5.86-28.13-2.24-4.28-8.72-.49-6.47,3.78,3.39,6.45,0,14.1-4.69,19-3.31,3.52,2,8.83,5.3,5.31Z" transform="translate(-349 -80)" fill="#fff"/></g></svg>