<?xml version="1.0" encoding="utf-8"?>
<!-- Generator: Adobe Illustrator 22.0.1, SVG Export Plug-In . SVG Version: 6.00 Build 0)  -->
<svg version="1.1" xmlns="http://www.w3.org/2000/svg" xmlns:xlink="http://www.w3.org/1999/xlink" x="0px" y="0px"
	 viewBox="0 0 260.5 259.1" style="enable-background:new 0 0 260.5 259.1;" xml:space="preserve">
<style type="text/css">
	.st0{fill:#A0737D;}
	.st1{fill:#825E69;stroke:#825E69;stroke-width:0.8178;stroke-miterlimit:10;}
	.st2{fill:#DB9B98;}
	.st3{fill:#FBDCD9;}
	.st4{fill:#E5E5E5;stroke:#E5E5E5;stroke-width:0.4285;stroke-miterlimit:10;}
	.st5{fill:#685C5C;}
	.st6{fill:#825E69;stroke:#825E69;stroke-width:1.0846;stroke-miterlimit:10;}
	.st7{fill:#FFFFFF;}
	.st8{fill:#825E69;stroke:#825E69;stroke-width:0.9277;stroke-miterlimit:10;}
	.st9{fill:none;stroke:#A0737D;stroke-width:1.2087;stroke-miterlimit:10;}
</style>
<g id="Calque_2">
</g>
<g id="Calque_1">
	<g>
		<g>
			<path class="st0" d="M95.4,57.5c-7.2,11.1-13.9,22.5-20.3,34.1c-10,18-20.6,37.2-25.3,57.4c-1.5,6.6-3,15.2,1.9,20.8
				c1.9,2.2,5.1-1,3.2-3.2c-3.8-4.4-1.7-12.6-0.5-17.5c2.3-9.4,6.2-18.4,10.2-27.2c8.1-17.6,17.7-34.5,27.8-51.1
				c2.3-3.7,4.5-7.4,6.9-11C100.9,57.4,97,55.1,95.4,57.5L95.4,57.5z"/>
		</g>
	</g>
	<ellipse class="st1" cx="58.8" cy="169.7" rx="6.8" ry="3.5"/>
	<g>
		<path class="st2" d="M96.2,135.7c1.2,7.9,2.5,15.7,3.7,23.6c2.8,17.6,5.5,35.6,2.8,53.3"/>
		<g>
			<path class="st0" d="M93.6,136.4c3.9,24.6,10.1,50.4,6.5,75.4c-0.5,3.4,4.7,4.9,5.2,1.4c3.7-26.1-2.5-52.6-6.5-78.3
				C98.2,131.6,93,133,93.6,136.4L93.6,136.4z"/>
		</g>
	</g>
	<g>
		<g>
			<path class="st0" d="M137.1,154.2c1.1,5.3,3.7,9.9,6.1,14.6c3,5.9,3.8,11.9,4.8,18.4c2,14,3.4,28.3,1.4,42.4
				c-0.5,3.4,4.7,4.9,5.2,1.4c2-13.9,1-27.6-0.8-41.4c-0.9-6.4-1.3-13.2-3.8-19.2c-2.5-6-6.3-11.3-7.6-17.7
				C141.7,149.4,136.4,150.8,137.1,154.2L137.1,154.2z"/>
		</g>
	</g>
	<g>
		<g>
			<g>
				<g>
					<path class="st2" d="M46.2,124.3c-17.4,36.2,31.5,24.6,31.5,24.6l53.2-102.4c-17-11.4-31.4,3.5-31.4,3.5
						C76.2,26.9,59.6,60.2,59.6,60.2c-35.1,0.4-24.9,32.5-24.9,32.5c-24.8,23.9,10.2,43.5,8.3,40.4"/>
					<g>
						<path class="st0" d="M43.8,122.9c-3,6.5-6.2,14.9-2.4,21.8c2.8,5.1,8.5,7.3,13.9,8.1c5.8,0.9,11.7,0.5,17.5-0.4
							c2.5-0.4,5.6-0.4,7.2-2.4c1.9-2.4,3.1-5.9,4.5-8.6c3.1-6,6.3-12.1,9.4-18.1c8.1-15.5,16.1-31,24.2-46.5c5-9.6,10-19.3,15-28.9
							c0.7-1.3,0.3-2.9-1-3.7c-11.2-7-25.3-5.6-34.7,3.9c1.3,0,2.6,0,3.8,0c-8.7-8.4-20.1-12.2-30.8-4.8
							c-5.5,3.8-10.2,9.5-13.2,15.5c0.8-0.4,1.6-0.9,2.3-1.3c-12.1,0.3-24.4,4.7-28,17.4C30,80.7,30.2,87.6,32,93.4
							c0.2-0.9,0.5-1.8,0.7-2.6c-10.5,10.5-13,24.1-3.1,35.9c2.8,3.4,6.4,6.6,10.4,8.6c2.7,1.3,7.3,0.6,5.3-3.5
							c-1.5-3.1-6.2-0.4-4.7,2.7c3.3-2.1,4.1-3.4,2.5-3.8c0.2,0.1,0.1,0.1-0.1,0c-0.2-0.3-0.8-0.3-1.1-0.6c-1-0.8-2.2-1.3-3.1-2.1
							c-2.7-2.1-5.1-4.6-7-7.4c-6.1-9.3-2.6-18.6,4.8-26c0.7-0.7,1-1.7,0.7-2.6c-1.3-4.3-1.7-9.3-0.9-13.7
							C38.5,66.8,49,63.1,59.6,62.9c0.9,0,1.9-0.5,2.3-1.3c2.2-4.4,5.4-8.5,9.1-11.8c8.8-7.7,18.4-5.5,26.4,2.2c1,1,2.8,1.1,3.8,0
							c7.7-7.8,18.9-8.9,28.1-3.1c-0.3-1.2-0.6-2.5-1-3.7c-10.8,20.9-21.7,41.7-32.5,62.6c-6,11.5-11.9,23-17.9,34.5
							c-0.7,1.3-1.5,2.6-2,3.9c-1.2,3.1,0.2-1.1,0.8,0.2c0-0.1-8.9,1.4-9.5,1.4c-5.7,0.5-12.6,0.7-17.7-2.2
							c-7.4-4.3-3.9-13.7-1.1-19.8C50,122.5,45.3,119.8,43.8,122.9L43.8,122.9z"/>
					</g>
				</g>
				<g>
					<g>
						<path class="st2" d="M122.8,80.2c-40.9-23.9-36.9,23.9-36.9,23.9c-31.8,15.5-7.6,44.8-7.6,44.8s5.7,34.6,34.5,17.5l-9.8-6.1
							c0,0,43.1,32.7,57.3-6.5l-5,9.6c30,15.4,41.8-6.9,41.8-6.9c24.6,3.6,24.7-16.3,23.2-18.1c13-16.3,0.6-26.2-0.2-26.8
							c0,0,0,0,0-0.1c10.1-18.4-10.1-28.9-10.1-28.9c6.5-30-28-28.9-27.1-27.1c-10.8-21.7-36.5-4-36.5-4c-22.8-14.1-40.6,22-40.6,22
							"/>
						<g>
							<path class="st0" d="M124.1,77.9c-11.8-6.8-29-12.1-36.9,2.8c-3.6,6.9-4.7,15.6-4,23.4c0.4-0.8,0.9-1.6,1.3-2.3
								c-9.4,4.8-17.2,12.4-17.7,23.5c-0.4,7.6,2.6,15.1,6.6,21.4c0.9,1.4,2.1,2.7,3,4.2c-1.5-2.5-0.1,1.5,0.2,2.5
								c1.7,6,4.7,12.1,9.6,16.1c8.5,7.1,19.2,4.4,28-0.7c1.8-1,1.7-3.6,0-4.7c-3.3-2-6.5-4-9.8-6.1c-3-1.9-5.4,2.6-2.7,4.7
								c7.6,5.7,16.9,10.3,26.1,12.2c6.6,1.4,13.6,1.4,19.8-1.5c7.8-3.6,12.4-11,15.4-18.8c1.1-2.9-3.5-4.8-5-2.1
								c-1.7,3.2-3.3,6.4-5,9.6c-0.6,1.2-0.4,3,1,3.7c10.6,5.3,23,8.3,34.1,2.7c4.5-2.3,8.9-6.1,11.3-10.6c-0.8,0.4-1.6,0.9-2.3,1.3
								c8.8,1.1,18.7-0.1,23.7-8.3c2-3.3,4.3-10.2,1.8-13.8c0,0.9,0,1.8,0,2.7c5-6.6,8.2-14.8,4.8-22.9c-0.9-2.2-2.3-4.5-4.1-6.1
								c-1.6-1.5-0.3-0.3-0.7-0.1c0.4,1.3,0.8,1.2,1.1-0.4c0.1-0.2,0.2-0.4,0.3-0.6c0.5-1.2,0.9-2.4,1.2-3.7
								c2.3-10.7-4.5-20.8-13.8-25.7c0.4,1,0.8,2,1.2,3.1c2.5-12.6-1.5-24.2-14-29.1c-2.8-1.1-19.8-5.6-18.3,1.9
								c1.7-0.7,3.3-1.4,5-2.1c-8.5-15.9-27.1-13.9-40.2-4.9c0.9,0,1.8,0,2.7,0c-18.8-11-36.3,7-44.3,23c-1.5,3.1,3.1,5.9,4.7,2.7
								C114.5,62,129,44.7,144.9,54c0.8,0.5,2,0.5,2.7,0c10.6-7.2,25.7-10.3,32.8,3c1.5,2.9,5.5,0.8,5-2.1c0.2,1.5-0.3,2.5-1.4,2.9
								c0.2,0,0.3-0.1,0.5-0.1c-0.2-0.1,0.5-0.1,0.6-0.1c1,0.2,2.3,0,3.4,0c3.1,0.2,6.4,1,9.2,2.3c9.1,4.1,11.4,12.8,9.5,22.1
								c-0.2,1.1,0.1,2.5,1.2,3.1c8.4,4.4,14.1,13.5,10.2,22.9c-0.9,2.3-2.1,3.5-0.5,5.7c0.7,1,1.9,1.8,2.7,2.9
								c4.9,6.9,1.5,14.5-3,20.6c-0.5,0.7-0.5,2,0,2.7c1,1.4-0.5,6.4-1.8,8.3c-4,6.4-12.3,6.5-19.1,5.6c-0.9-0.1-1.9,0.6-2.3,1.3
								c-7.7,14.2-25.9,12-38.1,5.9c0.3,1.2,0.6,2.5,1,3.7c1.7-3.2,3.3-6.4,5-9.6c-1.7-0.7-3.3-1.4-5-2.1
								c-2.7,7.1-7.2,13.8-14.7,16.2c-5.9,1.9-12.3,1-18.1-0.8c-7.3-2.2-14.5-6-20.6-10.6c-0.9,1.6-1.8,3.1-2.7,4.7
								c3.3,2,6.5,4,9.8,6.1c0-1.6,0-3.1,0-4.7c-8.8,5.1-18.7,6.7-25.1-2.5c-2.9-4.2-3.6-8.7-5.3-13.3c-0.6-1.6-1.5-2.2-2.7-4.1
								c-2-3.1-3.7-6.5-4.8-10c-3.9-12.6,2.5-22,13.8-27.7c0.8-0.4,1.4-1.5,1.3-2.3c-0.5-6.1,0.1-12.7,2.3-18.4
								c5.5-14.1,20.2-9,30.5-3.1C124.4,84.3,127.2,79.6,124.1,77.9L124.1,77.9z"/>
						</g>
					</g>
				</g>
			</g>
			<g>
				<path class="st2" d="M136.8,68.4c0,0,9.2-7.9,14.1,6.5"/>
				<path class="st0" d="M136.6,68.2c0-0.3,0-0.6,0.1-0.9c0.1-0.3,0.1-0.6,0.2-0.9c0.2-0.6,0.5-1.1,0.8-1.5c0.3-0.5,0.7-0.9,1.1-1.3
					c0.5-0.4,0.9-0.7,1.5-1c1.1-0.6,2.4-0.9,3.8-0.8c0.7,0.1,1.4,0.1,2.1,0.4c0.6,0.2,1.3,0.5,1.9,0.8c0.5,0.4,1.1,0.8,1.6,1.2
					c0.4,0.5,0.8,0.9,1.2,1.4c0.4,0.5,0.6,1,0.8,1.5c0.2,0.5,0.4,1,0.5,1.5c0.2,1,0.3,2.1,0.1,3.1c-0.1,0.5-0.2,1-0.4,1.6l-0.3,0.8
					c-0.1,0.3-0.3,0.5-0.4,0.8l-0.5,0.2l-1-2.1c-0.3-0.7-0.8-1.4-1.1-2c-0.9-1.2-1.8-2.5-3.1-3.2c-1.3-0.8-2.8-1-4.2-0.8
					c-0.4,0.1-0.7,0.2-1.1,0.2c-0.4,0.1-0.7,0.2-1.1,0.4c-0.7,0.3-1.4,0.7-2,1.1L136.6,68.2z"/>
			</g>
			<g>
				<path class="st2" d="M170.1,65.1c0,0,22,6.2,15.7,21.2c0,0,18.7,10.7,7.9,21.2"/>
				<path class="st0" d="M170.2,64.9c2.8-0.3,5.4,0.2,8.1,0.9c2.6,0.8,5.3,2,7.6,3.9c1.2,1,2.3,2.1,3.3,3.5c0.9,1.4,1.7,3,2.1,4.8
					c0.9,3.6,0.3,7.3-1,10.2l-2.1-6.1c0.7,0.4,1.2,0.7,1.7,1.1c0.5,0.4,1,0.8,1.5,1.2c1,0.8,1.9,1.6,2.8,2.6c1.8,1.8,3.4,4,4.5,6.6
					c0.5,1.3,1,2.7,1.1,4.2c0.1,1.5,0,3.1-0.5,4.5c-0.5,1.4-1.3,2.6-2.3,3.5c-0.9,0.9-2.1,1.6-3.2,2l-0.4-0.4
					c1.5-1.6,2.8-3.5,3.1-5.6c0.3-2.1-0.3-4.3-1.4-6.1c-1.1-1.9-2.6-3.5-4.3-5c-1.6-1.5-3.5-2.8-5.3-3.9l-0.4-0.2l0.2-0.4
					c0.9-2.2,1.4-4.7,0.9-7c-0.5-2.3-1.8-4.5-3.5-6.2c-1.7-1.8-3.7-3.2-5.9-4.4c-2.2-1.2-4.4-2.2-6.8-3L170.2,64.9z"/>
			</g>
			<g>
				<path class="st2" d="M59,77.6c0,0,5.1-17,19.3-11.4"/>
				<path class="st0" d="M58.7,77.5c-1.1-2.7-1-5.3-0.2-7.8c0.8-2.5,2.4-4.8,4.8-6.5c2.4-1.7,5.6-2.5,8.5-2c2.9,0.5,5.3,2.2,6.6,4.8
					l-0.2,0.5c-1-0.3-2-0.6-3-0.8c-1-0.2-2.1-0.2-3.1-0.2c-2,0.1-4,0.9-5.7,2.1c-1.7,1.2-3.1,2.7-4.3,4.4c-0.6,0.9-1.1,1.8-1.6,2.7
					c-0.5,0.9-0.9,1.9-1.3,2.9L58.7,77.5z"/>
			</g>
			<g>
				<path class="st2" d="M71.2,56.1c1.4-1.3,2.9-2.6,4.7-3.3c1.8-0.7,4.1-0.5,5.4,0.8"/>
				<g>
					<path class="st3" d="M73.1,58c1.3-1.2,4.3-4.2,6.3-2.5c2.6,2.3,6.5-1.5,3.8-3.8c-4.7-4.1-10.1-1.1-14,2.5
						C66.7,56.6,70.6,60.4,73.1,58L73.1,58z"/>
				</g>
			</g>
			<g>
				<path class="st2" d="M44.2,79c-0.1-2.5,1-5.1,2.8-6.7"/>
				<g>
					<path class="st3" d="M46.9,79c0-1.9,0.6-3.5,2.1-4.8c2.6-2.4-1.3-6.2-3.8-3.8c-2.4,2.2-3.7,5.4-3.6,8.7
						C41.6,82.5,47,82.5,46.9,79L46.9,79z"/>
				</g>
			</g>
			<g>
				<path class="st2" d="M143.3,92.6c1.8-0.6,3.3-1.7,4.4-3.2"/>
				<g>
					<path class="st3" d="M144,95.2c2.5-0.8,4.5-2.3,6-4.5c0.8-1.2,0.2-3.1-1-3.7c-1.4-0.7-2.8-0.3-3.7,1c0.2-0.2,0,0-0.1,0.1
						c-0.1,0.1-0.2,0.3-0.4,0.4c-0.1,0.1-0.3,0.3-0.4,0.4c-0.3,0.3,0,0-0.2,0.2c-0.3,0.2-0.6,0.4-0.9,0.6c0,0-0.5,0.2-0.3,0.2
						c0.2-0.1-0.5,0.2-0.5,0.2c-1.3,0.4-2.4,1.9-1.9,3.3C141.1,94.6,142.6,95.7,144,95.2L144,95.2z"/>
				</g>
			</g>
			<g>
				<path class="st2" d="M133.3,59.2c-3.5-0.3-7,1.5-8.8,4.4"/>
				<g>
					<path class="st3" d="M133.3,56.5c-4.5-0.2-8.7,2-11.2,5.8c-2,2.9,2.7,5.6,4.7,2.7c1.5-2.2,3.9-3.2,6.5-3.1
						C136.7,62.1,136.7,56.6,133.3,56.5L133.3,56.5z"/>
				</g>
			</g>
			<g>
				<path class="st2" d="M34.3,109.5c-0.7,1.5-0.4,3.4,0.8,4.6c-0.5-1.6-0.7-3.2-0.6-4.9c0,2,0.2,4.4,2,5.5
					c-0.7-1.8-1.3-3.7-1.6-5.6"/>
				<g>
					<path class="st3" d="M32,108.1c-1.2,2.7-0.9,5.7,1.2,7.9c1.9,1.9,5.3,0,4.5-2.6c-0.4-1.4-0.6-2.7-0.5-4.2c-1.8,0-3.6,0-5.4,0
						c0.1,3,0.6,6,3.3,7.8c1.8,1.2,4.9-0.9,4-3.1c-0.7-1.8-1.3-3.7-1.6-5.6c-0.2-1.4-2-2.3-3.3-1.9c-1.5,0.4-2.1,1.9-1.9,3.3
						c0.3,1.9,0.9,3.8,1.6,5.6c1.3-1,2.7-2,4-3.1c0.1,0.1,0.1,0.1-0.1-0.1c0.1,0.2,0.1,0.1-0.1-0.2c-0.2-0.3-0.1-0.3-0.2-0.8
						c-0.1-0.5-0.1-0.5-0.1-0.8c0-0.4,0-0.8-0.1-1.2c-0.1-3.5-5.3-3.5-5.4,0c-0.1,1.9,0.2,3.8,0.7,5.6c1.5-0.9,3-1.8,4.5-2.6
						c-0.3-0.3-0.3-0.3-0.4-0.8c0-0.1,0-0.4,0-0.5c0.6-1.3,0.4-2.9-1-3.7C34.6,106.5,32.6,106.8,32,108.1L32,108.1z"/>
				</g>
			</g>
		</g>
		<g>
			<path class="st2" d="M105.7,81.6c-3.9-0.3-7.9,2-9.6,5.6"/>
			<g>
				<path class="st3" d="M105.7,79.6c-4.7-0.2-9.2,2.4-11.3,6.6c-1.2,2.3,2.3,4.4,3.5,2.1c1.5-3,4.4-4.7,7.8-4.6
					C108.3,83.8,108.3,79.7,105.7,79.6L105.7,79.6z"/>
			</g>
		</g>
	</g>
	<path class="st4" d="M112.4,115.4c-2.1-1.4-2.4-3-2.2-5.8l0.7-11.4c0.3-4.1,3.8-7.2,7.9-6.9h0c4.1,0.3,7.2,3.8,6.9,7.9l-0.7,11.4
		c-0.2,2.8-1.4,4.2-3.7,5.3"/>
	<path class="st5" d="M112.3,115.7c-0.3-0.7-0.4-1.5-0.3-2.6l0.5-7.9c0.2-2.8,2.7-5,5.6-4.8h0c2.9,0.2,5.2,2.6,5,5.5l-0.5,7.9
		c-0.1,1.1-0.4,1.9-1,2.6"/>
	<g>
		<path class="st0" d="M127.5,116.9c-2.7,0.4-4.6,0.4-6.3,0.4c-1.7,0-3.1-0.1-4.3-0.3c-1.3-0.2-2.5-0.4-4-0.7
			c-1.6-0.3-3.4-0.7-6-1.3l-0.3-0.5c1.6-1.1,3.3-2,5.2-2.5c1.9-0.6,3.9-0.7,5.8-0.4c1.9,0.3,3.8,0.8,5.6,1.7c1.7,0.9,3.3,2,4.8,3.3
			L127.5,116.9z"/>
	</g>
	<path class="st4" d="M60.1,105c-1.8-1.2-2.1-2.6-1.9-5l0.6-10c0.2-3.6,3.3-6.3,6.9-6.1l0,0c3.6,0.2,6.3,3.3,6.1,6.9l-0.6,10
		c-0.2,2.5-1.2,3.7-3.3,4.6"/>
	<path class="st5" d="M60.3,105.4c-0.4-0.7-0.5-1.5-0.4-2.5l0.4-6.9c0.2-2.5,2.4-4.3,5.1-4.2h0c2.6,0.2,4.7,2.3,4.5,4.8l-0.4,6.9
		c0,0.7-0.2,1.3-0.5,1.7"/>
	<ellipse class="st6" cx="145.5" cy="230.4" rx="8.9" ry="4.7"/>
	<ellipse class="st6" cx="96.2" cy="212.6" rx="8.9" ry="4.7"/>
	<g>
		<path class="st2" d="M120.7,96.3c1,0.3,1.8,0.9,2.4,1.8"/>
		<g>
			<path class="st7" d="M120.3,97.7c0.1,0,0.2,0.1,0.3,0.1c-0.1-0.1,0,0,0.1,0c0.2,0.1,0.4,0.2,0.6,0.4c0.2,0.1-0.1-0.1,0.1,0
				c0.1,0.1,0.2,0.1,0.2,0.2c0.1,0.1,0.1,0.1,0.2,0.2c0,0,0.2,0.3,0.1,0.1c0.5,0.7,1.3,1,2.1,0.5c0.6-0.4,1-1.4,0.5-2.1
				c-0.9-1.2-1.9-2-3.3-2.5c-0.7-0.2-1.7,0.3-1.8,1C119,96.7,119.5,97.5,120.3,97.7L120.3,97.7z"/>
		</g>
	</g>
	<g>
		<path class="st2" d="M62.4,88.4c0.2-0.6,0.6-1.1,1.1-1.5"/>
		<g>
			<path class="st7" d="M63.2,88.7c0.1-0.4,0.4-0.7,0.7-0.9c0.4-0.3,0.6-0.8,0.3-1.2c-0.2-0.4-0.8-0.6-1.2-0.3
				c-0.7,0.5-1.2,1.2-1.5,2C61.2,89.3,62.9,89.7,63.2,88.7L63.2,88.7z"/>
		</g>
	</g>
	<g>
		<path class="st0" d="M73.8,107.3c-2.7,0.4-4.6,0.4-6.3,0.4c-1.7,0-3.1-0.1-4.3-0.3c-1.3-0.2-2.5-0.4-4-0.7c-1.6-0.3-3.4-0.7-6-1.3
			l-0.3-0.5c1.6-1.1,3.3-2,5.2-2.5c1.9-0.6,3.9-0.7,5.8-0.4c1.9,0.3,3.8,0.8,5.6,1.7c1.7,0.9,3.3,2,4.8,3.3L73.8,107.3z"/>
	</g>
	<g>
		<path class="st7" d="M103.2,127c-1,4.7-35,17.8-43.6-7.1L103.2,127z"/>
		<g>
			<path class="st0" d="M101.2,126.5c-0.5,1.6-4.6,3-6,3.5c-3.5,1.4-7.3,2.3-11,2.5c-10.1,0.8-19-3.3-22.6-13.2
				c-0.8,0.8-1.7,1.7-2.5,2.5c14.5,2.4,29,4.8,43.6,7.1c2.6,0.4,3.7-3.5,1.1-4c-14.5-2.4-29-4.8-43.6-7.1c-1.4-0.2-3.1,0.9-2.5,2.5
				c4.3,11.6,14.5,17.1,26.6,16.2c5.6-0.4,18.8-2.4,20.9-9C105.9,125.1,102,124,101.2,126.5z"/>
		</g>
	</g>
	<g>
		<g>
			<path class="st0" d="M179.7,105.1c8.2,14.4,16.1,29.1,22.3,44.5c2.5,6.3,4.9,12.8,6.2,19.5c0.8,4,1.9,10-1,13.5
				c-2.5,3,1.8,7.3,4.3,4.3c7.8-9.3,1.5-25.2-2.1-34.9c-6.5-17.3-15.3-33.8-24.4-49.9C183,98.6,177.8,101.7,179.7,105.1L179.7,105.1
				z"/>
		</g>
	</g>
	<ellipse class="st8" cx="204.8" cy="184.7" rx="7.7" ry="4"/>
	<path class="st9" d="M187.2,116.6"/>
	<g>
	</g>
	<g>
	</g>
	<g>
	</g>
	<g>
	</g>
	<g>
	</g>
	<g>
	</g>
</g>
</svg>
